<?xml version="1.0" standalone="no"?>
<!DOCTYPE svg PUBLIC "-//W3C//DTD SVG 20010904//EN"
 "http://www.w3.org/TR/2001/REC-SVG-20010904/DTD/svg10.dtd">
<svg version="1.0" xmlns="http://www.w3.org/2000/svg"
 width="812.000000pt" height="812.000000pt" viewBox="0 0 812.000000 812.000000"
 preserveAspectRatio="xMidYMid meet">
<metadata>
Created by potrace 1.11, written by Peter Selinger 2001-2013
</metadata>
<g transform="translate(0.000000,812.000000) scale(0.100000,-0.100000)"
fill="#000000" stroke="none">
<path d="M0 4060 l0 -4060 4060 0 4060 0 0 4060 0 4060 -4060 0 -4060 0 0
-4060z m2160 3850 c449 -35 852 -219 1161 -530 672 -680 718 -1735 107 -2465
-429 -513 -1115 -751 -1768 -615 -554 116 -1031 488 -1275 995 -398 826 -125
1814 640 2318 253 166 556 272 852 296 142 12 136 12 283 1z m4060 -4060 c170
-13 302 -40 454 -91 381 -129 699 -371 925 -703 567 -834 348 -1976 -488
-2537 -622 -419 -1419 -419 -2042 -1 -678 456 -969 1313 -709 2093 205 616
732 1080 1373 1209 90 18 170 27 332 39 11 0 81 -4 155 -9z"/>
</g>
</svg>
